<svg width="20" height="19" viewBox="0 0 20 19" fill="none" xmlns="http://www.w3.org/2000/svg">
<path d="M10.75 10C10.75 9.58579 10.4142 9.25 10 9.25C9.58579 9.25 9.25 9.58579 9.25 10V14C9.25 14.4142 9.58579 14.75 10 14.75C10.4142 14.75 10.75 14.4142 10.75 14V10Z" fill="#363538"/>
<path fill-rule="evenodd" clip-rule="evenodd" d="M1.83261 5.5339L7.5012 0.999022C8.96208 -0.169678 11.0379 -0.169677 12.4988 0.999023L18.1674 5.5339C19.2989 6.43914 19.8524 7.88559 19.6142 9.31497L18.5571 15.6576C18.2356 17.5863 16.5668 19 14.6115 19H5.38849C3.43314 19 1.76438 17.5863 1.44292 15.6576L0.385814 9.31497C0.147584 7.88559 0.701055 6.43914 1.83261 5.5339ZM2.76965 6.7052L8.43825 2.17033C9.35129 1.43989 10.6487 1.43989 11.5617 2.17033L17.2303 6.7052C17.9375 7.27098 18.2835 8.17501 18.1346 9.06837L17.0775 15.411C16.8766 16.6165 15.8336 17.5 14.6115 17.5H5.38849C4.1664 17.5 3.12342 16.6165 2.92251 15.411L1.8654 9.06837C1.71651 8.17501 2.06243 7.27098 2.76965 6.7052Z" fill="#363538"/>
</svg>
